<?xml version="1.0"?>
<svg width="164" height="50" xmlns="http://www.w3.org/2000/svg" xmlns:svg="http://www.w3.org/2000/svg">
 <g class="layer">
  <title>Layer 1</title>
  <rect fill="#1abdc9" height="50" id="svg_2" rx="10" transform="matrix(1 0 0 1 0 0)" width="50"/>
  <path d="m26,9.56l5.86,0l0,19.69c0,1.81 -0.4,3.41 -1.21,4.8c-0.79,1.38 -1.92,2.45 -3.38,3.21c-1.45,0.75 -3.1,1.13 -4.94,1.13c-3.01,0 -5.35,-0.76 -7.03,-2.28c-1.68,-1.54 -2.52,-3.71 -2.52,-6.51l5.9,0c0,1.39 0.29,2.42 0.88,3.09c0.58,0.66 1.51,0.99 2.77,0.99c1.12,0 2.01,-0.38 2.68,-1.15c0.66,-0.77 0.99,-1.86 0.99,-3.28l0,-19.69z" fill="white" id="svg_3"/>
  <text fill="#27ccdb" font-family="Fantasy" font-size="24" id="svg_4" stroke="#d6bcf2" stroke-width="0" text-anchor="middle" transform="matrix(1.09979 0 0 1.07677 43.3805 5.80949)" x="57.34" xml:space="preserve" y="26.82">Job Lagbe</text>
 </g>

</svg>